# xmcd CD database file
#
# Track frame offsets:
#	150
#	12768
#	30779
#	42505
#	52617
#	67569
#	77794
#	97494
#	113759
#	126681
#	141651
#	156706
#	173008
#
# Disc length: 2559 seconds
#
# Revision: 2
# Processed by: cddbd v1.4PL0 Copyright (c) Steve Scherf et al.
# Submitted via: CDex 1.40Release
#
DISCID=ad09fd0d
DTITLE=Jesse Dayton - Hey Nashvegas!
DYEAR=2001
DGENRE=Country
TTITLE0=Hey Nashvegas!
TTITLE1=Never Started Living (Until I Started Loving You)
TTITLE2=Date With the Angels
TTITLE3=I Dream Too
TTITLE4=Hearkbreak California
TTITLE5=Wayward Soul
TTITLE6=Don't Take Yesterday
TTITLE7=Panhandle Jake
TTITLE8=Mama's Guilty Fool
TTITLE9=Letter to Home
TTITLE10=Never Been Too Good at Goodbyes
TTITLE11=One Life Stand
TTITLE12=Roses Ain't Enough
EXTD=YEAR: 2001 ID3G: 2
EXTT0=
EXTT1=
EXTT2=
EXTT3=
EXTT4=
EXTT5=
EXTT6=
EXTT7=
EXTT8=
EXTT9=
EXTT10=
EXTT11=
EXTT12=
PLAYORDER=
